<svg width="396" height="411" viewBox="0 0 396 411" fill="none" xmlns="http://www.w3.org/2000/svg">
<path d="M0 246.577C9.42781 291.82 34.2685 335.627 70.0616 364.866C105.855 394.105 150.6 410.173 196.818 410.387C243.037 410.6 287.928 394.944 323.99 366.037C360.051 337.129 385.119 293.412 394.964 248.257H390.316C381.229 289.935 353.268 333.477 319.983 360.159C286.698 386.84 239.478 400.839 196.818 400.643C154.158 400.446 112.93 379.82 79.8929 352.833C46.8557 325.845 24.083 288.337 15.3811 246.577H0Z" fill="white"/>
<path d="M395.556 164.718C386.339 119.435 361.702 75.5182 326.044 46.1158C290.386 16.7134 245.714 0.437598 199.495 0.00869832C153.275 -0.420201 108.309 15.0238 72.1114 43.7594C35.9137 72.495 10.6405 116.09 0.584457 161.193H5.59973C14.8815 119.563 38.7008 76.4191 72.1114 49.896C105.522 23.3729 156.834 7.43095 199.495 7.82683C242.155 8.22271 283.243 30.963 316.156 58.1015C349.068 85.2401 371.667 122.85 380.174 164.646L395.556 164.718Z" fill="white"/>
<path d="M156.369 361.867C163.755 361.867 170.004 359.311 175.117 354.199C180.514 348.802 183.354 342.412 183.638 335.027V98.5749C183.354 91.1902 180.514 84.9416 175.117 79.8291C170.004 74.7167 163.755 72.1604 156.369 72.1604H150.83V67.9H244.141V72.1604H238.602C231.216 72.1604 224.825 74.7167 219.428 79.8291C214.315 84.9416 211.617 91.1902 211.333 98.5749V335.027C211.333 342.412 214.031 348.802 219.428 354.199C224.825 359.311 231.216 361.867 238.602 361.867H244.141V366.128H150.83V361.867H156.369Z" fill="white"/>
<path d="M208.065 239.878C208.065 285.62 170.98 322.702 125.234 322.702C79.4873 322.702 42.4026 285.62 42.4026 239.878C42.4026 194.135 79.4873 157.054 125.234 157.054C170.98 157.054 208.065 194.135 208.065 239.878Z" fill="white"/>
<path d="M280.673 113.351C280.673 159.288 242.531 194.413 196.785 194.413C151.039 194.413 115.011 159.288 115.011 113.351C115.011 67.4135 152.096 30.1741 197.842 30.1741C243.589 30.1741 280.673 67.4135 280.673 113.351Z" fill="white"/>
<path d="M187.089 300.613C187.03 300.693 186.904 300.675 186.898 300.575C185.665 280.834 186.896 212.164 198.195 196.527C209.547 180.817 233.342 163.739 252.07 158.936C270.799 154.133 290.61 156.058 308.073 164.378C325.537 172.699 339.552 186.89 347.693 204.494C355.834 222.099 357.587 242.008 352.649 260.774C347.711 279.54 336.393 295.981 320.655 307.25C304.917 318.518 285.749 323.905 266.473 322.477C247.269 321.054 229.161 312.958 215.261 299.584C215.197 299.522 215.233 299.413 215.321 299.401L239.407 296.272C239.425 296.27 239.434 296.269 239.45 296.275C239.979 296.477 253.539 301.617 267.927 302.683C282.604 303.771 297.197 299.669 309.18 291.089C321.163 282.51 329.781 269.992 333.54 255.704C337.3 241.416 335.965 226.257 329.767 212.853C323.568 199.45 312.897 188.645 299.601 182.31C286.304 175.975 271.22 174.509 256.961 178.166C242.702 181.823 225.519 190.558 216.876 202.519C208.24 214.471 203.938 261.356 204.89 276.143C204.891 276.168 204.884 276.191 204.869 276.211L187.089 300.613Z" fill="white"/>
</svg>
